HIERARCHY
ROOT Hips
{
	OFFSET 0.00000 0.00000 0.00000
	CHANNELS 6 Xposition Yposition Zposition Yrotation Zrotation Xrotation 
	JOINT Lumbar
	{
		OFFSET 0 0 0
		CHANNELS 3 Zrotation Xrotation Yrotation
		JOINT Neck
		{
			OFFSET 0.00 0.2701 0.00
			CHANNELS 3 Zrotation Xrotation Yrotation
			End Site
			{
				OFFSET 0.00 0.1379 0.00
			}
		}
		JOINT RightShoulder
		{
			OFFSET 0.0119 0.2289 0.1181
			CHANNELS 3 Zrotation Xrotation Yrotation
			JOINT RightElbow
			{
				OFFSET 0.00 -0.1475 0.00
				CHANNELS 2 Zrotation Yrotation
				JOINT RightWrist
				{
					OFFSET 0.00 -0.1605 0.00
					CHANNELS 2 Zrotation Xrotation
					End Site
					{
						OFFSET 0.0040 -0.1068 0.0006
					}
				}
			}
		}
		JOINT LeftShoulder
		{
			OFFSET 0.0119 0.2289 -0.1181
			CHANNELS 3 Zrotation Xrotation Yrotation
			JOINT LeftElbow
			{
				OFFSET 0.00 -0.1475 0.00
				CHANNELS 2 Zrotation Yrotation
				JOINT LeftWrist
				{
					OFFSET 0.00 -0.1605 0.00
					CHANNELS 2 Zrotation Xrotation
					End Site
					{
						OFFSET 0.0040 -0.1068 -0.0006
					}
				}
			}
		}
	}
	JOINT RightHip
	{
		OFFSET 0.0316 -0.0424 0.0458
		CHANNELS 3 Zrotation Xrotation Yrotation
		JOINT RightKnee
		{
			OFFSET 0.00 -0.2438 0.00
			CHANNELS 1 Zrotation
			JOINT RightAnkle
			{
				OFFSET 0.00 -0.2449 0.00
				CHANNELS 3 Zrotation Xrotation Yrotation
				End Site
				{
					OFFSET 0.1237 -0.0542 0.0051
				}
			}
		}
	}
	JOINT LeftHip
	{
		OFFSET 0.0316 -0.0424 -0.0458
		CHANNELS 3 Zrotation Xrotation Yrotation
		JOINT LeftKnee
		{
			OFFSET 0.00 -0.2438 0.00
			CHANNELS 1 Zrotation
			JOINT LeftAnkle
			{
				OFFSET 0.00 -0.2449 0.00
				CHANNELS 3 Zrotation Xrotation Yrotation
				End Site
				{
					OFFSET 0.1237 -0.0542 -0.0051
				}
			}
		}
	}
}
MOTION
Frames: 14
Frame Time: 0.02
1.06478 0.5855 0.76167 1473.02044 0 -9.10103 3.72063 11.44159 6.66857 -23.40901 -10.06705 -4.36941 21.86887 -4.76247 -62.31786 5.787 78.2782 -2.67947 -2.29745 7.47125 22.29907 -18.83379 30.26519 -92.73903 -10.67546 7.3731 6.51586 11.47313 8.44644 -18.30588 2.26173 -3.32174 -7.12485 18.29342 -0.13669 -9.4503 -70.66793 3.83032 4.8751 14.37973
1.07078 0.58562 0.75889 1473.5809 0 -8.71144 3.56064 11.19055 6.80058 -24.26569 -10.52659 -4.4621 23.18572 -4.72321 -60.86421 5.78698 78.28064 -2.59054 -2.41035 7.98523 22.93116 -18.49563 31.35401 -92.83876 -10.75781 7.31579 5.81904 11.27803 8.51082 -18.36656 2.82832 -3.71065 -7.90477 19.49009 -0.37374 -8.13361 -67.56872 4.8142 5.09333 14.9692
1.07671 0.58553 0.75593 1474.1011 0 -8.37202 3.4309 10.98614 6.92155 -25.35207 -11.07828 -4.56559 24.65843 -4.53094 -60.0513 5.78696 78.0426 -2.44985 -2.50901 8.71997 23.72045 -18.16925 32.59442 -92.67196 -10.5969 7.21122 5.14732 11.09196 8.35906 -18.45413 3.42339 -4.09316 -8.43704 20.35454 -0.41425 -6.59342 -63.37214 5.96631 5.31993 15.38753
1.08268 0.58551 0.75303 1474.64396 0 -8.01619 3.29015 10.76208 7.04353 -26.32946 -11.57743 -4.66647 26.04497 -4.4071 -58.9411 5.78695 77.92631 -2.33675 -2.60962 9.34663 24.42495 -17.84155 33.75043 -92.61497 -10.56354 7.12175 4.45898 10.90629 8.29613 -18.52519 4.00798 -4.47659 -9.0709 21.33617 -0.55068 -5.17885 -59.6218 6.99639 5.53701 15.85828
1.08857 0.58559 0.75024 1475.16844 0 -7.62982 3.13828 10.52891 7.18122 -27.33847 -12.12357 -4.7606 27.50953 -4.28752 -57.82971 5.78693 77.76704 -2.20744 -2.72949 10.01024 25.18962 -17.49164 34.98165 -92.60243 -10.46261 7.05428 3.79621 10.69994 8.28067 -18.61807 4.58196 -4.87055 -9.7607 22.45502 -0.66543 -3.66246 -56.04619 8.23503 5.78247 16.43518
1.09463 0.58541 0.74716 1475.72062 0 -7.32009 3.01658 10.3263 7.28462 -28.32888 -12.59363 -4.87041 28.84042 -4.1213 -56.88456 5.78692 77.63737 -2.09906 -2.80562 10.64515 25.86535 -17.19158 36.08805 -92.43664 -10.44155 6.93243 3.08454 10.53928 8.11317 -18.67055 5.18471 -5.24113 -10.27217 23.21108 -0.77613 -2.30545 -51.87096 9.07595 5.96908 16.7536
1.10118 0.58462 0.74336 1476.37116 0 -7.21267 2.97106 10.20263 7.28847 -29.24296 -12.82298 -5.01748 29.80085 -3.88351 -56.23052 5.78691 77.63678 -2.06336 -2.76621 11.17786 26.2505 -17.04171 36.81841 -91.89561 -10.71903 6.66224 2.23455 10.50435 7.56463 -18.60403 5.86188 -5.53783 -10.3425 23.04964 -0.9249 -1.43548 -46.2299 8.74096 5.99263 16.3625
1.1079 0.58359 0.73926 1477.04868 0 -7.18055 2.95489 10.10728 7.25961 -30.12257 -12.97381 -5.17939 30.61234 -3.60087 -55.7299 5.78692 77.67471 -2.05002 -2.68279 11.66775 26.54126 -16.94014 37.41596 -91.21282 -11.08162 6.34126 1.33345 10.51485 6.87213 -18.49571 6.56654 -5.81281 -10.24205 22.53566 -1.07484 -0.73188 -40.04897 8.00405 5.95603 15.72297
1.11455 0.58264 0.73525 1477.7064 0 -7.11264 2.92489 9.99573 7.25082 -30.99701 -13.16541 -5.33722 31.46746 -3.32587 -55.16686 5.78692 77.70127 -2.02485 -2.61853 12.15718 26.87891 -16.80667 38.0687 -90.60678 -11.39256 6.05059 0.45349 10.50381 6.25316 -18.40629 7.25763 -6.10446 -10.22449 22.18079 -1.22326 0.03873 -34.16532 7.47213 5.94509 15.22263
1.12117 0.58177 0.7314 1478.39536 0 -7.05338 2.89749 9.9005 7.21992 -31.97036 -13.33846 -5.48728 32.43287 -3.09854 -54.58465 5.78691 77.69452 -2.0048 -2.5579 12.73992 27.20539 -16.7135 38.74697 -89.94023 -11.74917 5.72803 -0.41651 10.49743 5.59155 -18.31755 7.95499 -6.36732 -10.17658 21.81531 -1.37105 0.84028 -28.00084 6.85167 5.94059 14.60897
1.1279 0.5807 0.72716 1479.02514 0 -6.99291 2.87192 9.77653 7.22713 -32.72303 -13.53074 -5.65306 33.12721 -2.76419 -54.08339 5.78692 77.76838 -1.98022 -2.47872 13.11341 27.53049 -16.5502 39.3407 -89.36844 -12.03487 5.46001 -1.32 10.49126 4.98867 -18.21804 8.64453 -6.68495 -10.15407 21.39705 -1.52052 1.55148 -22.33582 6.31851 5.90954 14.17003
1.13488 0.57917 0.72199 1479.49493 0 -6.91391 2.83878 9.57343 7.35119 -32.90412 -13.78991 -5.89351 33.14236 -2.13816 -53.65282 5.78693 78.06362 -1.93663 -2.36565 12.93434 27.8755 -16.15985 39.71353 -89.10314 -12.09729 5.35915 -2.30012 10.48113 4.57267 -18.09373 9.31244 -7.15884 -10.2484 20.88135 -1.69728 1.90505 -17.94604 6.11706 5.80822 14.31539
1.14197 0.57745 0.71642 1479.9033 0 -6.83001 2.80764 9.33873 7.51474 -32.85874 -14.07101 -6.14422 32.88341 -1.40821 -53.31427 5.78695 78.43736 -1.88824 -2.23458 12.54261 28.22142 -15.70077 40.00878 -88.93724 -12.08762 5.31435 -3.31192 10.46839 4.22399 -17.96298 9.96936 -7.6879 -10.37477 20.3328 -1.87322 2.19575 -14.12644 6.01721 5.68396 14.63924
1.14904 0.57581 0.71099 1480.33245 0 -6.74627 2.77856 9.11368 7.65709 -32.89514 -14.34606 -6.36533 32.72687 -0.7311 -53.00928 5.78697 78.77216 -1.84289 -2.10713 12.23703 28.56575 -15.2879 40.35186 -88.7209 -12.11685 5.24151 -4.31286 10.4525 3.85214 -17.83583 10.62782 -8.19293 -10.48409 19.8267 -2.03436 2.61726 -10.20726 5.87582 5.57832 14.85421
